<svg data-name="Layer 2" id="Layer_2" viewBox="0 0 2050 2050" xmlns="http://www.w3.org/2000/svg"><defs><style>.cls-2{fill:#4d4c78}.cls-4{fill:#323150}.cls-5{fill:#64639c}</style></defs><rect height="1210.74" rx="65.8" ry="65.8" width="1531.3" x="259.3" y="290.9" fill="#67baeb"/><path class="cls-2" d="M259.3 1261.3v174.5a65.8 65.8 0 0065.8 65.8h1399.8a65.8 65.8 0 0065.8-65.8v-174.5z"/><path class="cls-2" d="M259.3 1261.3v174.5a65.8 65.8 0 0065.8 65.8h1399.8a65.8 65.8 0 0065.8-65.8v-174.5z"/><path d="M397 1449a65.9 65.9 0 01-65.9-65.9V304a70.1 70.1 0 011.3-13.1h-7.3a65.9 65.9 0 00-65.8 65.8v1079.1a65.8 65.8 0 0065.8 65.8h1399.8a65.9 65.9 0 0064.5-52.6z" fill="#46a1f8"/><path class="cls-4" d="M397 1449a65.9 65.9 0 01-65.9-65.9v-121.8h-71.8v174.5a65.8 65.8 0 0065.8 65.8h1399.8a65.9 65.9 0 0064.5-52.6z"/><circle class="cls-4" cx="1025" cy="1384.4" r="47.8"/><path class="cls-2" d="M1263.1 1728.8H786.9l94.5-227.2h287.2l94.5 227.2z"/><path class="cls-4" d="M1071.4 1564.9H1195l-26.4-63.3H881.4l-94.5 227.2h151.6l43.3-104.1a97 97 0 0189.6-59.8z"/><path class="cls-4" d="M732.4 1728.8h585.2a77.2 77.2 0 0177.2 77.2H655.2a77.2 77.2 0 0177.2-77.2z"/><path class="cls-2" d="M988 429.9L446.7 642.8c-12.7 5-12.7 22.9 0 27.8l572.8 225.3a14.9 14.9 0 0011 0l572.8-225.3c12.7-4.9 12.7-22.8 0-27.8L1062 429.9a101.6 101.6 0 00-74 0z"/><path class="cls-4" d="M828.9 630.2L649.4 750.3 826 819.8l2.9-189.6zM1221.1 630.2l179.5 120.1-176.6 69.5-2.9-189.6z"/><path class="cls-2" d="M1293.8 1043.1H756.2L806 655.2a29.3 29.3 0 0122.9-25q214.4-47.7 393.3-.7a29.5 29.5 0 0121.7 24.8z"/><path class="cls-4" d="M890.7 716.2a29.6 29.6 0 0122.9-25.1q179-39.9 333.3-13.6l-3-23.2a29.5 29.5 0 00-21.7-24.8q-179-47.1-393.3.7a29.3 29.3 0 00-22.9 25l-49.8 387.9h92.6z"/><ellipse class="cls-4" cx="1025" cy="1043.1" rx="268.8" ry="33.1"/><path class="cls-4" d="M1425.6 981.5a13.4 13.4 0 01-13.5-13.4V587.5a13.5 13.5 0 0126.9 0v380.6a13.4 13.4 0 01-13.4 13.4z"/><path class="cls-2" d="M1423.7 1113.1a46.5 46.5 0 01-46.5-46.4v-74.5a46.5 46.5 0 0192.9 0v74.5a46.5 46.5 0 01-46.4 46.4z"/><path class="cls-4" d="M1400.6 1092.2v-74.6a46.4 46.4 0 0166.5-41.8 46.5 46.5 0 00-89.9 16.4v74.5a46.6 46.6 0 0026.4 41.9 47.2 47.2 0 01-3-16.4z"/><rect class="cls-5" height="254.48" rx="40.4" ry="40.4" transform="rotate(-8.2 1226.03 854.2)" width="80.9" x="1184.9" y="726.4"/><rect class="cls-5" height="254.48" rx="40.4" ry="40.4" transform="rotate(-70.1 1213.83 536.3)" width="80.9" x="1174.4" y="408.9"/><rect class="cls-5" height="76.48" rx="19" ry="19" width="38.1" x="1431" y="999.7"/><rect class="cls-5" height="75.2" rx="37.6" ry="37.6" width="411.9" x="1263.1" y="1261.3"/><rect class="cls-5" height="122.46" rx="29.8" ry="29.8" transform="rotate(-21.9 1198.86 1652.37)" width="59.7" x="1168.3" y="1590.6"/></svg>